<mxfile host="app.diagrams.net" agent="Mozilla/5.0 (Windows NT 10.0; Win64; x64) AppleWebKit/537.36 (KHTML, like Gecko) Chrome/136.0.0.0 Safari/537.36 Edg/136.0.0.0" version="25.0.3">
  <diagram id="C5RBs43oDa-KdzZeNtuy" name="Page-1">
    <mxGraphModel dx="5219" dy="1888" grid="1" gridSize="10" guides="1" tooltips="1" connect="1" arrows="1" fold="1" page="1" pageScale="1" pageWidth="827" pageHeight="1169" math="0" shadow="0">
      <root>
        <mxCell id="WIyWlLk6GJQsqaUBKTNV-0" />
        <mxCell id="WIyWlLk6GJQsqaUBKTNV-1" parent="WIyWlLk6GJQsqaUBKTNV-0" />
        <mxCell id="vCW_MwngGzxrIVZmUVN0-2" value="" style="edgeStyle=orthogonalEdgeStyle;rounded=0;orthogonalLoop=1;jettySize=auto;html=1;" edge="1" parent="WIyWlLk6GJQsqaUBKTNV-1" source="vCW_MwngGzxrIVZmUVN0-0" target="vCW_MwngGzxrIVZmUVN0-1">
          <mxGeometry relative="1" as="geometry" />
        </mxCell>
        <mxCell id="vCW_MwngGzxrIVZmUVN0-0" value="Start" style="ellipse;whiteSpace=wrap;html=1;" vertex="1" parent="WIyWlLk6GJQsqaUBKTNV-1">
          <mxGeometry x="354" y="30" width="120" height="80" as="geometry" />
        </mxCell>
        <mxCell id="vCW_MwngGzxrIVZmUVN0-4" value="" style="edgeStyle=orthogonalEdgeStyle;rounded=0;orthogonalLoop=1;jettySize=auto;html=1;" edge="1" parent="WIyWlLk6GJQsqaUBKTNV-1" source="vCW_MwngGzxrIVZmUVN0-1" target="vCW_MwngGzxrIVZmUVN0-3">
          <mxGeometry relative="1" as="geometry" />
        </mxCell>
        <mxCell id="vCW_MwngGzxrIVZmUVN0-1" value="Login Page" style="rounded=0;whiteSpace=wrap;html=1;" vertex="1" parent="WIyWlLk6GJQsqaUBKTNV-1">
          <mxGeometry x="354" y="170" width="120" height="60" as="geometry" />
        </mxCell>
        <mxCell id="vCW_MwngGzxrIVZmUVN0-6" value="Yes" style="edgeStyle=orthogonalEdgeStyle;rounded=0;orthogonalLoop=1;jettySize=auto;html=1;entryX=1;entryY=0.5;entryDx=0;entryDy=0;" edge="1" parent="WIyWlLk6GJQsqaUBKTNV-1" source="vCW_MwngGzxrIVZmUVN0-3" target="vCW_MwngGzxrIVZmUVN0-7">
          <mxGeometry x="0.0625" relative="1" as="geometry">
            <mxPoint x="314" y="340" as="targetPoint" />
            <mxPoint as="offset" />
          </mxGeometry>
        </mxCell>
        <mxCell id="vCW_MwngGzxrIVZmUVN0-9" value="No" style="edgeStyle=orthogonalEdgeStyle;rounded=0;orthogonalLoop=1;jettySize=auto;html=1;" edge="1" parent="WIyWlLk6GJQsqaUBKTNV-1" source="vCW_MwngGzxrIVZmUVN0-3" target="vCW_MwngGzxrIVZmUVN0-8">
          <mxGeometry x="-0.1333" relative="1" as="geometry">
            <mxPoint as="offset" />
          </mxGeometry>
        </mxCell>
        <mxCell id="vCW_MwngGzxrIVZmUVN0-3" value="Have an Account?" style="rhombus;whiteSpace=wrap;html=1;" vertex="1" parent="WIyWlLk6GJQsqaUBKTNV-1">
          <mxGeometry x="374" y="300" width="80" height="80" as="geometry" />
        </mxCell>
        <mxCell id="vCW_MwngGzxrIVZmUVN0-51" value="" style="edgeStyle=orthogonalEdgeStyle;rounded=0;orthogonalLoop=1;jettySize=auto;html=1;" edge="1" parent="WIyWlLk6GJQsqaUBKTNV-1" source="vCW_MwngGzxrIVZmUVN0-7">
          <mxGeometry relative="1" as="geometry">
            <mxPoint x="90" y="340" as="targetPoint" />
          </mxGeometry>
        </mxCell>
        <mxCell id="vCW_MwngGzxrIVZmUVN0-7" value="Login Account" style="rounded=1;whiteSpace=wrap;html=1;" vertex="1" parent="WIyWlLk6GJQsqaUBKTNV-1">
          <mxGeometry x="190" y="310" width="120" height="60" as="geometry" />
        </mxCell>
        <mxCell id="vCW_MwngGzxrIVZmUVN0-11" value="" style="edgeStyle=orthogonalEdgeStyle;rounded=0;orthogonalLoop=1;jettySize=auto;html=1;" edge="1" parent="WIyWlLk6GJQsqaUBKTNV-1" source="vCW_MwngGzxrIVZmUVN0-8" target="vCW_MwngGzxrIVZmUVN0-10">
          <mxGeometry relative="1" as="geometry" />
        </mxCell>
        <mxCell id="vCW_MwngGzxrIVZmUVN0-8" value="Register Page" style="whiteSpace=wrap;html=1;" vertex="1" parent="WIyWlLk6GJQsqaUBKTNV-1">
          <mxGeometry x="514" y="310" width="120" height="60" as="geometry" />
        </mxCell>
        <mxCell id="vCW_MwngGzxrIVZmUVN0-13" value="" style="edgeStyle=orthogonalEdgeStyle;rounded=0;orthogonalLoop=1;jettySize=auto;html=1;" edge="1" parent="WIyWlLk6GJQsqaUBKTNV-1" source="vCW_MwngGzxrIVZmUVN0-10" target="vCW_MwngGzxrIVZmUVN0-12">
          <mxGeometry relative="1" as="geometry" />
        </mxCell>
        <mxCell id="vCW_MwngGzxrIVZmUVN0-16" style="edgeStyle=orthogonalEdgeStyle;rounded=0;orthogonalLoop=1;jettySize=auto;html=1;entryX=1;entryY=0.5;entryDx=0;entryDy=0;" edge="1" parent="WIyWlLk6GJQsqaUBKTNV-1" source="vCW_MwngGzxrIVZmUVN0-10" target="vCW_MwngGzxrIVZmUVN0-1">
          <mxGeometry relative="1" as="geometry">
            <Array as="points">
              <mxPoint x="730" y="440" />
              <mxPoint x="730" y="200" />
            </Array>
          </mxGeometry>
        </mxCell>
        <mxCell id="vCW_MwngGzxrIVZmUVN0-10" value="Create Account" style="rounded=1;whiteSpace=wrap;html=1;" vertex="1" parent="WIyWlLk6GJQsqaUBKTNV-1">
          <mxGeometry x="514" y="410" width="120" height="60" as="geometry" />
        </mxCell>
        <mxCell id="vCW_MwngGzxrIVZmUVN0-18" value="Access Database" style="edgeStyle=orthogonalEdgeStyle;rounded=0;orthogonalLoop=1;jettySize=auto;html=1;entryX=0.5;entryY=1;entryDx=0;entryDy=0;" edge="1" parent="WIyWlLk6GJQsqaUBKTNV-1" source="vCW_MwngGzxrIVZmUVN0-12" target="vCW_MwngGzxrIVZmUVN0-7">
          <mxGeometry x="-0.3636" relative="1" as="geometry">
            <mxPoint as="offset" />
          </mxGeometry>
        </mxCell>
        <mxCell id="vCW_MwngGzxrIVZmUVN0-12" value="Database" style="shape=cylinder3;whiteSpace=wrap;html=1;boundedLbl=1;backgroundOutline=1;size=15;" vertex="1" parent="WIyWlLk6GJQsqaUBKTNV-1">
          <mxGeometry x="544" y="520" width="60" height="80" as="geometry" />
        </mxCell>
        <mxCell id="vCW_MwngGzxrIVZmUVN0-26" value="" style="edgeStyle=orthogonalEdgeStyle;rounded=0;orthogonalLoop=1;jettySize=auto;html=1;" edge="1" parent="WIyWlLk6GJQsqaUBKTNV-1" source="vCW_MwngGzxrIVZmUVN0-22" target="vCW_MwngGzxrIVZmUVN0-25">
          <mxGeometry relative="1" as="geometry" />
        </mxCell>
        <mxCell id="vCW_MwngGzxrIVZmUVN0-28" value="" style="edgeStyle=orthogonalEdgeStyle;rounded=0;orthogonalLoop=1;jettySize=auto;html=1;" edge="1" parent="WIyWlLk6GJQsqaUBKTNV-1" source="vCW_MwngGzxrIVZmUVN0-22" target="vCW_MwngGzxrIVZmUVN0-27">
          <mxGeometry relative="1" as="geometry" />
        </mxCell>
        <mxCell id="vCW_MwngGzxrIVZmUVN0-30" value="" style="edgeStyle=orthogonalEdgeStyle;rounded=0;orthogonalLoop=1;jettySize=auto;html=1;" edge="1" parent="WIyWlLk6GJQsqaUBKTNV-1" source="vCW_MwngGzxrIVZmUVN0-22" target="vCW_MwngGzxrIVZmUVN0-29">
          <mxGeometry relative="1" as="geometry">
            <Array as="points">
              <mxPoint x="-200" y="310" />
              <mxPoint x="-200" y="310" />
            </Array>
          </mxGeometry>
        </mxCell>
        <mxCell id="vCW_MwngGzxrIVZmUVN0-22" value="Dashboard/Home" style="rounded=0;whiteSpace=wrap;html=1;" vertex="1" parent="WIyWlLk6GJQsqaUBKTNV-1">
          <mxGeometry x="-260" y="310" width="120" height="60" as="geometry" />
        </mxCell>
        <mxCell id="vCW_MwngGzxrIVZmUVN0-34" value="" style="edgeStyle=orthogonalEdgeStyle;rounded=0;orthogonalLoop=1;jettySize=auto;html=1;" edge="1" parent="WIyWlLk6GJQsqaUBKTNV-1" source="vCW_MwngGzxrIVZmUVN0-25" target="vCW_MwngGzxrIVZmUVN0-33">
          <mxGeometry relative="1" as="geometry" />
        </mxCell>
        <mxCell id="vCW_MwngGzxrIVZmUVN0-41" value="" style="edgeStyle=orthogonalEdgeStyle;rounded=0;orthogonalLoop=1;jettySize=auto;html=1;" edge="1" parent="WIyWlLk6GJQsqaUBKTNV-1" source="vCW_MwngGzxrIVZmUVN0-25" target="vCW_MwngGzxrIVZmUVN0-40">
          <mxGeometry relative="1" as="geometry" />
        </mxCell>
        <mxCell id="vCW_MwngGzxrIVZmUVN0-43" value="" style="edgeStyle=orthogonalEdgeStyle;rounded=0;orthogonalLoop=1;jettySize=auto;html=1;" edge="1" parent="WIyWlLk6GJQsqaUBKTNV-1" source="vCW_MwngGzxrIVZmUVN0-25" target="vCW_MwngGzxrIVZmUVN0-42">
          <mxGeometry relative="1" as="geometry" />
        </mxCell>
        <mxCell id="vCW_MwngGzxrIVZmUVN0-25" value="Profile" style="rounded=0;whiteSpace=wrap;html=1;" vertex="1" parent="WIyWlLk6GJQsqaUBKTNV-1">
          <mxGeometry x="-663" y="310" width="120" height="60" as="geometry" />
        </mxCell>
        <mxCell id="vCW_MwngGzxrIVZmUVN0-96" value="" style="edgeStyle=orthogonalEdgeStyle;rounded=0;orthogonalLoop=1;jettySize=auto;html=1;" edge="1" parent="WIyWlLk6GJQsqaUBKTNV-1" source="vCW_MwngGzxrIVZmUVN0-27" target="vCW_MwngGzxrIVZmUVN0-113">
          <mxGeometry relative="1" as="geometry">
            <mxPoint x="-200" y="600" as="targetPoint" />
          </mxGeometry>
        </mxCell>
        <mxCell id="vCW_MwngGzxrIVZmUVN0-110" style="edgeStyle=orthogonalEdgeStyle;rounded=0;orthogonalLoop=1;jettySize=auto;html=1;entryX=0.5;entryY=1;entryDx=0;entryDy=0;" edge="1" parent="WIyWlLk6GJQsqaUBKTNV-1" source="vCW_MwngGzxrIVZmUVN0-27" target="vCW_MwngGzxrIVZmUVN0-22">
          <mxGeometry relative="1" as="geometry" />
        </mxCell>
        <mxCell id="vCW_MwngGzxrIVZmUVN0-27" value="Appointments" style="rounded=0;whiteSpace=wrap;html=1;" vertex="1" parent="WIyWlLk6GJQsqaUBKTNV-1">
          <mxGeometry x="-260" y="470" width="120" height="60" as="geometry" />
        </mxCell>
        <mxCell id="vCW_MwngGzxrIVZmUVN0-49" value="" style="edgeStyle=orthogonalEdgeStyle;rounded=0;orthogonalLoop=1;jettySize=auto;html=1;" edge="1" parent="WIyWlLk6GJQsqaUBKTNV-1" source="vCW_MwngGzxrIVZmUVN0-29" target="vCW_MwngGzxrIVZmUVN0-48">
          <mxGeometry relative="1" as="geometry" />
        </mxCell>
        <mxCell id="vCW_MwngGzxrIVZmUVN0-111" style="edgeStyle=orthogonalEdgeStyle;rounded=0;orthogonalLoop=1;jettySize=auto;html=1;" edge="1" parent="WIyWlLk6GJQsqaUBKTNV-1" source="vCW_MwngGzxrIVZmUVN0-29">
          <mxGeometry relative="1" as="geometry">
            <mxPoint x="-199.99999999999955" y="310" as="targetPoint" />
          </mxGeometry>
        </mxCell>
        <mxCell id="vCW_MwngGzxrIVZmUVN0-29" value="Contact Us" style="rounded=0;whiteSpace=wrap;html=1;" vertex="1" parent="WIyWlLk6GJQsqaUBKTNV-1">
          <mxGeometry x="-260" y="170" width="120" height="60" as="geometry" />
        </mxCell>
        <mxCell id="vCW_MwngGzxrIVZmUVN0-36" value="Yes" style="edgeStyle=orthogonalEdgeStyle;rounded=0;orthogonalLoop=1;jettySize=auto;html=1;" edge="1" parent="WIyWlLk6GJQsqaUBKTNV-1" source="vCW_MwngGzxrIVZmUVN0-33" target="vCW_MwngGzxrIVZmUVN0-35">
          <mxGeometry relative="1" as="geometry" />
        </mxCell>
        <mxCell id="vCW_MwngGzxrIVZmUVN0-37" style="edgeStyle=orthogonalEdgeStyle;rounded=0;orthogonalLoop=1;jettySize=auto;html=1;" edge="1" parent="WIyWlLk6GJQsqaUBKTNV-1" source="vCW_MwngGzxrIVZmUVN0-33">
          <mxGeometry relative="1" as="geometry">
            <mxPoint x="-260" y="340" as="targetPoint" />
            <Array as="points">
              <mxPoint x="-462" y="200" />
            </Array>
          </mxGeometry>
        </mxCell>
        <mxCell id="vCW_MwngGzxrIVZmUVN0-38" value="No" style="edgeLabel;html=1;align=center;verticalAlign=middle;resizable=0;points=[];" vertex="1" connectable="0" parent="vCW_MwngGzxrIVZmUVN0-37">
          <mxGeometry x="-0.6507" y="-1" relative="1" as="geometry">
            <mxPoint y="-1" as="offset" />
          </mxGeometry>
        </mxCell>
        <mxCell id="vCW_MwngGzxrIVZmUVN0-33" value="Logout?" style="rhombus;whiteSpace=wrap;html=1;rounded=0;" vertex="1" parent="WIyWlLk6GJQsqaUBKTNV-1">
          <mxGeometry x="-643" y="160" width="80" height="80" as="geometry" />
        </mxCell>
        <mxCell id="vCW_MwngGzxrIVZmUVN0-35" value="End" style="ellipse;whiteSpace=wrap;html=1;" vertex="1" parent="WIyWlLk6GJQsqaUBKTNV-1">
          <mxGeometry x="-653" y="30" width="100" height="70" as="geometry" />
        </mxCell>
        <mxCell id="vCW_MwngGzxrIVZmUVN0-45" value="" style="edgeStyle=orthogonalEdgeStyle;rounded=0;orthogonalLoop=1;jettySize=auto;html=1;" edge="1" parent="WIyWlLk6GJQsqaUBKTNV-1" source="vCW_MwngGzxrIVZmUVN0-40">
          <mxGeometry relative="1" as="geometry">
            <mxPoint x="-940" y="340" as="targetPoint" />
          </mxGeometry>
        </mxCell>
        <mxCell id="vCW_MwngGzxrIVZmUVN0-40" value="Account Information" style="rounded=0;whiteSpace=wrap;html=1;" vertex="1" parent="WIyWlLk6GJQsqaUBKTNV-1">
          <mxGeometry x="-863" y="310" width="120" height="60" as="geometry" />
        </mxCell>
        <mxCell id="vCW_MwngGzxrIVZmUVN0-47" value="" style="edgeStyle=orthogonalEdgeStyle;rounded=0;orthogonalLoop=1;jettySize=auto;html=1;" edge="1" parent="WIyWlLk6GJQsqaUBKTNV-1" source="vCW_MwngGzxrIVZmUVN0-42" target="vCW_MwngGzxrIVZmUVN0-46">
          <mxGeometry relative="1" as="geometry" />
        </mxCell>
        <mxCell id="vCW_MwngGzxrIVZmUVN0-42" value="Preferences" style="rounded=0;whiteSpace=wrap;html=1;" vertex="1" parent="WIyWlLk6GJQsqaUBKTNV-1">
          <mxGeometry x="-663" y="450" width="120" height="60" as="geometry" />
        </mxCell>
        <mxCell id="vCW_MwngGzxrIVZmUVN0-44" value="Change User Data" style="rounded=1;whiteSpace=wrap;html=1;" vertex="1" parent="WIyWlLk6GJQsqaUBKTNV-1">
          <mxGeometry x="-1060" y="310" width="120" height="60" as="geometry" />
        </mxCell>
        <mxCell id="vCW_MwngGzxrIVZmUVN0-46" value="Change Website Design" style="rounded=1;whiteSpace=wrap;html=1;" vertex="1" parent="WIyWlLk6GJQsqaUBKTNV-1">
          <mxGeometry x="-663" y="570" width="120" height="60" as="geometry" />
        </mxCell>
        <mxCell id="vCW_MwngGzxrIVZmUVN0-48" value="Email, Number, Name of the Company&#39;Bsuiness" style="rounded=0;whiteSpace=wrap;html=1;" vertex="1" parent="WIyWlLk6GJQsqaUBKTNV-1">
          <mxGeometry x="-260" y="60" width="120" height="60" as="geometry" />
        </mxCell>
        <mxCell id="vCW_MwngGzxrIVZmUVN0-53" style="edgeStyle=orthogonalEdgeStyle;rounded=0;orthogonalLoop=1;jettySize=auto;html=1;entryX=1;entryY=0.5;entryDx=0;entryDy=0;" edge="1" parent="WIyWlLk6GJQsqaUBKTNV-1" source="vCW_MwngGzxrIVZmUVN0-52" target="vCW_MwngGzxrIVZmUVN0-22">
          <mxGeometry relative="1" as="geometry" />
        </mxCell>
        <mxCell id="vCW_MwngGzxrIVZmUVN0-54" value="Client" style="edgeLabel;html=1;align=center;verticalAlign=middle;resizable=0;points=[];" vertex="1" connectable="0" parent="vCW_MwngGzxrIVZmUVN0-53">
          <mxGeometry x="-0.5201" y="1" relative="1" as="geometry">
            <mxPoint x="-16" y="-1" as="offset" />
          </mxGeometry>
        </mxCell>
        <mxCell id="vCW_MwngGzxrIVZmUVN0-79" style="edgeStyle=orthogonalEdgeStyle;rounded=0;orthogonalLoop=1;jettySize=auto;html=1;" edge="1" parent="WIyWlLk6GJQsqaUBKTNV-1" source="vCW_MwngGzxrIVZmUVN0-52" target="vCW_MwngGzxrIVZmUVN0-58">
          <mxGeometry relative="1" as="geometry">
            <Array as="points">
              <mxPoint x="45" y="690" />
              <mxPoint x="850" y="690" />
            </Array>
          </mxGeometry>
        </mxCell>
        <mxCell id="vCW_MwngGzxrIVZmUVN0-80" value="Staff" style="edgeLabel;html=1;align=center;verticalAlign=middle;resizable=0;points=[];" vertex="1" connectable="0" parent="vCW_MwngGzxrIVZmUVN0-79">
          <mxGeometry x="-0.3317" y="-2" relative="1" as="geometry">
            <mxPoint as="offset" />
          </mxGeometry>
        </mxCell>
        <mxCell id="vCW_MwngGzxrIVZmUVN0-52" value="Client or Staff" style="rhombus;whiteSpace=wrap;html=1;" vertex="1" parent="WIyWlLk6GJQsqaUBKTNV-1">
          <mxGeometry y="295" width="90" height="90" as="geometry" />
        </mxCell>
        <mxCell id="vCW_MwngGzxrIVZmUVN0-55" value="" style="edgeStyle=orthogonalEdgeStyle;rounded=0;orthogonalLoop=1;jettySize=auto;html=1;" edge="1" parent="WIyWlLk6GJQsqaUBKTNV-1" source="vCW_MwngGzxrIVZmUVN0-58" target="vCW_MwngGzxrIVZmUVN0-62">
          <mxGeometry relative="1" as="geometry" />
        </mxCell>
        <mxCell id="vCW_MwngGzxrIVZmUVN0-56" value="" style="edgeStyle=orthogonalEdgeStyle;rounded=0;orthogonalLoop=1;jettySize=auto;html=1;" edge="1" parent="WIyWlLk6GJQsqaUBKTNV-1" source="vCW_MwngGzxrIVZmUVN0-58" target="vCW_MwngGzxrIVZmUVN0-63">
          <mxGeometry relative="1" as="geometry" />
        </mxCell>
        <mxCell id="vCW_MwngGzxrIVZmUVN0-57" value="" style="edgeStyle=orthogonalEdgeStyle;rounded=0;orthogonalLoop=1;jettySize=auto;html=1;" edge="1" parent="WIyWlLk6GJQsqaUBKTNV-1" source="vCW_MwngGzxrIVZmUVN0-58" target="vCW_MwngGzxrIVZmUVN0-65">
          <mxGeometry relative="1" as="geometry" />
        </mxCell>
        <mxCell id="vCW_MwngGzxrIVZmUVN0-58" value="Dashboard/Home" style="rounded=0;whiteSpace=wrap;html=1;" vertex="1" parent="WIyWlLk6GJQsqaUBKTNV-1">
          <mxGeometry x="800" y="1035" width="120" height="60" as="geometry" />
        </mxCell>
        <mxCell id="vCW_MwngGzxrIVZmUVN0-59" value="" style="edgeStyle=orthogonalEdgeStyle;rounded=0;orthogonalLoop=1;jettySize=auto;html=1;" edge="1" parent="WIyWlLk6GJQsqaUBKTNV-1" source="vCW_MwngGzxrIVZmUVN0-62" target="vCW_MwngGzxrIVZmUVN0-69">
          <mxGeometry relative="1" as="geometry" />
        </mxCell>
        <mxCell id="vCW_MwngGzxrIVZmUVN0-60" value="" style="edgeStyle=orthogonalEdgeStyle;rounded=0;orthogonalLoop=1;jettySize=auto;html=1;" edge="1" parent="WIyWlLk6GJQsqaUBKTNV-1" source="vCW_MwngGzxrIVZmUVN0-62" target="vCW_MwngGzxrIVZmUVN0-72">
          <mxGeometry relative="1" as="geometry" />
        </mxCell>
        <mxCell id="vCW_MwngGzxrIVZmUVN0-61" value="" style="edgeStyle=orthogonalEdgeStyle;rounded=0;orthogonalLoop=1;jettySize=auto;html=1;" edge="1" parent="WIyWlLk6GJQsqaUBKTNV-1" source="vCW_MwngGzxrIVZmUVN0-62" target="vCW_MwngGzxrIVZmUVN0-74">
          <mxGeometry relative="1" as="geometry" />
        </mxCell>
        <mxCell id="vCW_MwngGzxrIVZmUVN0-62" value="Profile" style="rounded=0;whiteSpace=wrap;html=1;" vertex="1" parent="WIyWlLk6GJQsqaUBKTNV-1">
          <mxGeometry x="597" y="1035" width="120" height="60" as="geometry" />
        </mxCell>
        <mxCell id="vCW_MwngGzxrIVZmUVN0-63" value="Appointments" style="rounded=0;whiteSpace=wrap;html=1;" vertex="1" parent="WIyWlLk6GJQsqaUBKTNV-1">
          <mxGeometry x="1000" y="1295" width="120" height="60" as="geometry" />
        </mxCell>
        <mxCell id="vCW_MwngGzxrIVZmUVN0-64" value="" style="edgeStyle=orthogonalEdgeStyle;rounded=0;orthogonalLoop=1;jettySize=auto;html=1;" edge="1" parent="WIyWlLk6GJQsqaUBKTNV-1" source="vCW_MwngGzxrIVZmUVN0-65" target="vCW_MwngGzxrIVZmUVN0-77">
          <mxGeometry relative="1" as="geometry" />
        </mxCell>
        <mxCell id="vCW_MwngGzxrIVZmUVN0-65" value="Contact Us" style="rounded=0;whiteSpace=wrap;html=1;" vertex="1" parent="WIyWlLk6GJQsqaUBKTNV-1">
          <mxGeometry x="1000" y="855" width="120" height="60" as="geometry" />
        </mxCell>
        <mxCell id="vCW_MwngGzxrIVZmUVN0-66" value="Yes" style="edgeStyle=orthogonalEdgeStyle;rounded=0;orthogonalLoop=1;jettySize=auto;html=1;" edge="1" parent="WIyWlLk6GJQsqaUBKTNV-1" source="vCW_MwngGzxrIVZmUVN0-69" target="vCW_MwngGzxrIVZmUVN0-70">
          <mxGeometry relative="1" as="geometry" />
        </mxCell>
        <mxCell id="vCW_MwngGzxrIVZmUVN0-67" style="edgeStyle=orthogonalEdgeStyle;rounded=0;orthogonalLoop=1;jettySize=auto;html=1;entryX=1;entryY=0.5;entryDx=0;entryDy=0;" edge="1" parent="WIyWlLk6GJQsqaUBKTNV-1" source="vCW_MwngGzxrIVZmUVN0-69" target="vCW_MwngGzxrIVZmUVN0-62">
          <mxGeometry relative="1" as="geometry">
            <mxPoint x="750" y="1175" as="targetPoint" />
            <Array as="points">
              <mxPoint x="760" y="930" />
              <mxPoint x="760" y="1065" />
            </Array>
          </mxGeometry>
        </mxCell>
        <mxCell id="vCW_MwngGzxrIVZmUVN0-68" value="No" style="edgeLabel;html=1;align=center;verticalAlign=middle;resizable=0;points=[];" vertex="1" connectable="0" parent="vCW_MwngGzxrIVZmUVN0-67">
          <mxGeometry x="-0.6507" y="-1" relative="1" as="geometry">
            <mxPoint x="-19" y="-1" as="offset" />
          </mxGeometry>
        </mxCell>
        <mxCell id="vCW_MwngGzxrIVZmUVN0-69" value="Logout?" style="rhombus;whiteSpace=wrap;html=1;rounded=0;" vertex="1" parent="WIyWlLk6GJQsqaUBKTNV-1">
          <mxGeometry x="617" y="890" width="80" height="80" as="geometry" />
        </mxCell>
        <mxCell id="vCW_MwngGzxrIVZmUVN0-70" value="End" style="ellipse;whiteSpace=wrap;html=1;" vertex="1" parent="WIyWlLk6GJQsqaUBKTNV-1">
          <mxGeometry x="607" y="770" width="100" height="70" as="geometry" />
        </mxCell>
        <mxCell id="vCW_MwngGzxrIVZmUVN0-84" value="" style="edgeStyle=orthogonalEdgeStyle;rounded=0;orthogonalLoop=1;jettySize=auto;html=1;" edge="1" parent="WIyWlLk6GJQsqaUBKTNV-1" source="vCW_MwngGzxrIVZmUVN0-72" target="vCW_MwngGzxrIVZmUVN0-83">
          <mxGeometry relative="1" as="geometry" />
        </mxCell>
        <mxCell id="vCW_MwngGzxrIVZmUVN0-86" value="" style="edgeStyle=orthogonalEdgeStyle;rounded=0;orthogonalLoop=1;jettySize=auto;html=1;" edge="1" parent="WIyWlLk6GJQsqaUBKTNV-1" source="vCW_MwngGzxrIVZmUVN0-72" target="vCW_MwngGzxrIVZmUVN0-85">
          <mxGeometry relative="1" as="geometry" />
        </mxCell>
        <mxCell id="vCW_MwngGzxrIVZmUVN0-72" value="Account Information" style="rounded=0;whiteSpace=wrap;html=1;" vertex="1" parent="WIyWlLk6GJQsqaUBKTNV-1">
          <mxGeometry x="390" y="1035" width="120" height="60" as="geometry" />
        </mxCell>
        <mxCell id="vCW_MwngGzxrIVZmUVN0-73" value="" style="edgeStyle=orthogonalEdgeStyle;rounded=0;orthogonalLoop=1;jettySize=auto;html=1;" edge="1" parent="WIyWlLk6GJQsqaUBKTNV-1" source="vCW_MwngGzxrIVZmUVN0-74" target="vCW_MwngGzxrIVZmUVN0-76">
          <mxGeometry relative="1" as="geometry" />
        </mxCell>
        <mxCell id="vCW_MwngGzxrIVZmUVN0-74" value="Preferences" style="rounded=0;whiteSpace=wrap;html=1;" vertex="1" parent="WIyWlLk6GJQsqaUBKTNV-1">
          <mxGeometry x="597" y="1275" width="120" height="60" as="geometry" />
        </mxCell>
        <mxCell id="vCW_MwngGzxrIVZmUVN0-76" value="Change Website Design" style="rounded=1;whiteSpace=wrap;html=1;" vertex="1" parent="WIyWlLk6GJQsqaUBKTNV-1">
          <mxGeometry x="597" y="1395" width="120" height="60" as="geometry" />
        </mxCell>
        <mxCell id="vCW_MwngGzxrIVZmUVN0-77" value="Email, Number, Name of the Company&#39;Bsuiness" style="rounded=0;whiteSpace=wrap;html=1;" vertex="1" parent="WIyWlLk6GJQsqaUBKTNV-1">
          <mxGeometry x="1210" y="875" width="120" height="60" as="geometry" />
        </mxCell>
        <mxCell id="vCW_MwngGzxrIVZmUVN0-88" value="" style="edgeStyle=orthogonalEdgeStyle;rounded=0;orthogonalLoop=1;jettySize=auto;html=1;" edge="1" parent="WIyWlLk6GJQsqaUBKTNV-1" source="vCW_MwngGzxrIVZmUVN0-83" target="vCW_MwngGzxrIVZmUVN0-87">
          <mxGeometry relative="1" as="geometry" />
        </mxCell>
        <mxCell id="vCW_MwngGzxrIVZmUVN0-83" value="Client Information" style="whiteSpace=wrap;html=1;rounded=0;" vertex="1" parent="WIyWlLk6GJQsqaUBKTNV-1">
          <mxGeometry x="190" y="1035" width="120" height="60" as="geometry" />
        </mxCell>
        <mxCell id="vCW_MwngGzxrIVZmUVN0-90" value="" style="edgeStyle=orthogonalEdgeStyle;rounded=0;orthogonalLoop=1;jettySize=auto;html=1;" edge="1" parent="WIyWlLk6GJQsqaUBKTNV-1" source="vCW_MwngGzxrIVZmUVN0-85" target="vCW_MwngGzxrIVZmUVN0-89">
          <mxGeometry relative="1" as="geometry" />
        </mxCell>
        <mxCell id="vCW_MwngGzxrIVZmUVN0-85" value="User Information" style="whiteSpace=wrap;html=1;rounded=0;" vertex="1" parent="WIyWlLk6GJQsqaUBKTNV-1">
          <mxGeometry x="390" y="1175" width="120" height="60" as="geometry" />
        </mxCell>
        <mxCell id="vCW_MwngGzxrIVZmUVN0-87" value="Change Client Data" style="rounded=1;whiteSpace=wrap;html=1;" vertex="1" parent="WIyWlLk6GJQsqaUBKTNV-1">
          <mxGeometry x="20" y="1035" width="120" height="60" as="geometry" />
        </mxCell>
        <mxCell id="vCW_MwngGzxrIVZmUVN0-89" value="Change User Data" style="rounded=1;whiteSpace=wrap;html=1;" vertex="1" parent="WIyWlLk6GJQsqaUBKTNV-1">
          <mxGeometry x="390" y="1275" width="120" height="60" as="geometry" />
        </mxCell>
        <mxCell id="vCW_MwngGzxrIVZmUVN0-98" value="" style="edgeStyle=orthogonalEdgeStyle;rounded=0;orthogonalLoop=1;jettySize=auto;html=1;" edge="1" parent="WIyWlLk6GJQsqaUBKTNV-1" source="vCW_MwngGzxrIVZmUVN0-95" target="vCW_MwngGzxrIVZmUVN0-97">
          <mxGeometry relative="1" as="geometry" />
        </mxCell>
        <mxCell id="vCW_MwngGzxrIVZmUVN0-95" value="Fill out form" style="rounded=1;whiteSpace=wrap;html=1;" vertex="1" parent="WIyWlLk6GJQsqaUBKTNV-1">
          <mxGeometry x="-260" y="750" width="120" height="60" as="geometry" />
        </mxCell>
        <mxCell id="vCW_MwngGzxrIVZmUVN0-100" value="" style="edgeStyle=orthogonalEdgeStyle;rounded=0;orthogonalLoop=1;jettySize=auto;html=1;" edge="1" parent="WIyWlLk6GJQsqaUBKTNV-1" source="vCW_MwngGzxrIVZmUVN0-97">
          <mxGeometry relative="1" as="geometry">
            <mxPoint x="-199.99999999999955" y="1010" as="targetPoint" />
          </mxGeometry>
        </mxCell>
        <mxCell id="vCW_MwngGzxrIVZmUVN0-97" value="Calendar (Pick a schedule for Checkup)" style="rounded=1;whiteSpace=wrap;html=1;" vertex="1" parent="WIyWlLk6GJQsqaUBKTNV-1">
          <mxGeometry x="-260" y="870" width="120" height="60" as="geometry" />
        </mxCell>
        <mxCell id="vCW_MwngGzxrIVZmUVN0-103" value="" style="edgeStyle=orthogonalEdgeStyle;rounded=0;orthogonalLoop=1;jettySize=auto;html=1;" edge="1" parent="WIyWlLk6GJQsqaUBKTNV-1" source="vCW_MwngGzxrIVZmUVN0-101" target="vCW_MwngGzxrIVZmUVN0-102">
          <mxGeometry relative="1" as="geometry" />
        </mxCell>
        <mxCell id="vCW_MwngGzxrIVZmUVN0-104" value="Yes" style="edgeLabel;html=1;align=center;verticalAlign=middle;resizable=0;points=[];" vertex="1" connectable="0" parent="vCW_MwngGzxrIVZmUVN0-103">
          <mxGeometry x="-0.5786" y="-2" relative="1" as="geometry">
            <mxPoint as="offset" />
          </mxGeometry>
        </mxCell>
        <mxCell id="vCW_MwngGzxrIVZmUVN0-106" value="No" style="edgeStyle=orthogonalEdgeStyle;rounded=0;orthogonalLoop=1;jettySize=auto;html=1;" edge="1" parent="WIyWlLk6GJQsqaUBKTNV-1" source="vCW_MwngGzxrIVZmUVN0-101" target="vCW_MwngGzxrIVZmUVN0-105">
          <mxGeometry relative="1" as="geometry" />
        </mxCell>
        <mxCell id="vCW_MwngGzxrIVZmUVN0-101" value="Scheduled" style="rhombus;whiteSpace=wrap;html=1;" vertex="1" parent="WIyWlLk6GJQsqaUBKTNV-1">
          <mxGeometry x="-240" y="1010" width="80" height="80" as="geometry" />
        </mxCell>
        <mxCell id="vCW_MwngGzxrIVZmUVN0-112" style="edgeStyle=orthogonalEdgeStyle;rounded=0;orthogonalLoop=1;jettySize=auto;html=1;" edge="1" parent="WIyWlLk6GJQsqaUBKTNV-1" source="vCW_MwngGzxrIVZmUVN0-102">
          <mxGeometry relative="1" as="geometry">
            <mxPoint x="-140" y="500" as="targetPoint" />
            <Array as="points">
              <mxPoint x="-60" y="1260" />
              <mxPoint x="-60" y="500" />
            </Array>
          </mxGeometry>
        </mxCell>
        <mxCell id="vCW_MwngGzxrIVZmUVN0-102" value="Successfully Scheduled" style="rounded=1;whiteSpace=wrap;html=1;" vertex="1" parent="WIyWlLk6GJQsqaUBKTNV-1">
          <mxGeometry x="-260" y="1160" width="120" height="60" as="geometry" />
        </mxCell>
        <mxCell id="vCW_MwngGzxrIVZmUVN0-109" style="edgeStyle=orthogonalEdgeStyle;rounded=0;orthogonalLoop=1;jettySize=auto;html=1;entryX=0;entryY=0.5;entryDx=0;entryDy=0;" edge="1" parent="WIyWlLk6GJQsqaUBKTNV-1" source="vCW_MwngGzxrIVZmUVN0-105" target="vCW_MwngGzxrIVZmUVN0-97">
          <mxGeometry relative="1" as="geometry">
            <mxPoint x="-360.00000000000045" y="910" as="targetPoint" />
            <Array as="points">
              <mxPoint x="-360" y="900" />
            </Array>
          </mxGeometry>
        </mxCell>
        <mxCell id="vCW_MwngGzxrIVZmUVN0-105" value="Pick Another Date" style="rounded=1;whiteSpace=wrap;html=1;" vertex="1" parent="WIyWlLk6GJQsqaUBKTNV-1">
          <mxGeometry x="-420" y="1020" width="120" height="60" as="geometry" />
        </mxCell>
        <mxCell id="vCW_MwngGzxrIVZmUVN0-115" value="Surgery" style="edgeStyle=orthogonalEdgeStyle;rounded=0;orthogonalLoop=1;jettySize=auto;html=1;entryX=1;entryY=0.5;entryDx=0;entryDy=0;" edge="1" parent="WIyWlLk6GJQsqaUBKTNV-1" source="vCW_MwngGzxrIVZmUVN0-113" target="vCW_MwngGzxrIVZmUVN0-116">
          <mxGeometry relative="1" as="geometry">
            <mxPoint x="-320" y="640" as="targetPoint" />
          </mxGeometry>
        </mxCell>
        <mxCell id="vCW_MwngGzxrIVZmUVN0-117" value="Checkup" style="edgeStyle=orthogonalEdgeStyle;rounded=0;orthogonalLoop=1;jettySize=auto;html=1;" edge="1" parent="WIyWlLk6GJQsqaUBKTNV-1" source="vCW_MwngGzxrIVZmUVN0-113" target="vCW_MwngGzxrIVZmUVN0-95">
          <mxGeometry relative="1" as="geometry" />
        </mxCell>
        <mxCell id="vCW_MwngGzxrIVZmUVN0-113" value="Check-up or Surgery" style="rhombus;whiteSpace=wrap;html=1;" vertex="1" parent="WIyWlLk6GJQsqaUBKTNV-1">
          <mxGeometry x="-245" y="590" width="90" height="100" as="geometry" />
        </mxCell>
        <mxCell id="vCW_MwngGzxrIVZmUVN0-118" style="edgeStyle=orthogonalEdgeStyle;rounded=0;orthogonalLoop=1;jettySize=auto;html=1;entryX=1;entryY=0.5;entryDx=0;entryDy=0;" edge="1" parent="WIyWlLk6GJQsqaUBKTNV-1" source="vCW_MwngGzxrIVZmUVN0-116" target="vCW_MwngGzxrIVZmUVN0-120">
          <mxGeometry relative="1" as="geometry">
            <mxPoint x="-500" y="880" as="targetPoint" />
          </mxGeometry>
        </mxCell>
        <mxCell id="vCW_MwngGzxrIVZmUVN0-116" value="Fill out form" style="rounded=1;whiteSpace=wrap;html=1;" vertex="1" parent="WIyWlLk6GJQsqaUBKTNV-1">
          <mxGeometry x="-460" y="730" width="120" height="60" as="geometry" />
        </mxCell>
        <mxCell id="vCW_MwngGzxrIVZmUVN0-120" value="Calendar (Automatically Scheduled)" style="rounded=1;whiteSpace=wrap;html=1;" vertex="1" parent="WIyWlLk6GJQsqaUBKTNV-1">
          <mxGeometry x="-703" y="840" width="120" height="60" as="geometry" />
        </mxCell>
        <mxCell id="vCW_MwngGzxrIVZmUVN0-121" value="" style="edgeStyle=orthogonalEdgeStyle;rounded=0;orthogonalLoop=1;jettySize=auto;html=1;exitX=0.5;exitY=1;exitDx=0;exitDy=0;" edge="1" parent="WIyWlLk6GJQsqaUBKTNV-1" source="vCW_MwngGzxrIVZmUVN0-120" target="vCW_MwngGzxrIVZmUVN0-125">
          <mxGeometry relative="1" as="geometry">
            <mxPoint x="-643" y="1060" as="sourcePoint" />
          </mxGeometry>
        </mxCell>
        <mxCell id="vCW_MwngGzxrIVZmUVN0-122" value="Yes" style="edgeLabel;html=1;align=center;verticalAlign=middle;resizable=0;points=[];" vertex="1" connectable="0" parent="vCW_MwngGzxrIVZmUVN0-121">
          <mxGeometry x="-0.5786" y="-2" relative="1" as="geometry">
            <mxPoint as="offset" />
          </mxGeometry>
        </mxCell>
        <mxCell id="vCW_MwngGzxrIVZmUVN0-128" style="edgeStyle=orthogonalEdgeStyle;rounded=0;orthogonalLoop=1;jettySize=auto;html=1;entryX=0;entryY=0.5;entryDx=0;entryDy=0;" edge="1" parent="WIyWlLk6GJQsqaUBKTNV-1" source="vCW_MwngGzxrIVZmUVN0-125" target="vCW_MwngGzxrIVZmUVN0-27">
          <mxGeometry relative="1" as="geometry">
            <Array as="points">
              <mxPoint x="-770" y="990" />
              <mxPoint x="-770" y="670" />
              <mxPoint x="-380" y="670" />
              <mxPoint x="-380" y="500" />
            </Array>
          </mxGeometry>
        </mxCell>
        <mxCell id="vCW_MwngGzxrIVZmUVN0-125" value="Successfully Scheduled" style="rounded=1;whiteSpace=wrap;html=1;" vertex="1" parent="WIyWlLk6GJQsqaUBKTNV-1">
          <mxGeometry x="-703" y="960" width="120" height="60" as="geometry" />
        </mxCell>
      </root>
    </mxGraphModel>
  </diagram>
</mxfile>
